<svg width="69" height="17" viewBox="0 0 69 17" fill="none" xmlns="http://www.w3.org/2000/svg">
<g id="Group">
<path id="Vector" d="M7.50167 0.000854492V3.24445C7.21 3.22195 6.98474 3.19945 6.71551 3.19945C4.78423 3.19945 3.50359 4.25785 3.50359 6.57805V12.2994H0V0.180854H3.34654V1.78015C4.2 0.609255 5.63679 0.000854492 7.50167 0.000854492Z" fill="white"/>
<path id="Vector_2" d="M8.57948 6.2397C8.57948 2.5911 11.3867 0 15.2277 0C19.0687 0 21.8535 2.5902 21.8535 6.2397C21.8535 9.8892 19.0687 12.4794 15.2277 12.4794C11.3876 12.4794 8.57948 9.8892 8.57948 6.2397ZM18.305 6.2397C18.305 4.1445 16.9795 2.8836 15.2277 2.8836C13.4759 2.8836 12.1279 4.1454 12.1279 6.2397C12.1279 8.334 13.4759 9.5958 15.2277 9.5958C16.9795 9.5958 18.305 8.3349 18.305 6.2397Z" fill="white"/>
<path id="Vector_3" d="M36.6549 0.1809V10.2717C36.6549 14.7762 34.2291 16.8489 29.8721 16.8489C27.5809 16.8489 25.3579 16.2855 23.9427 15.1821L25.3355 12.6594C26.3685 13.4928 28.0529 14.0337 29.6028 14.0337C32.0735 14.0337 33.1513 12.9078 33.1513 10.7226V10.2042C32.2305 11.2176 30.905 11.7135 29.3327 11.7135C25.9862 11.7135 23.2912 9.3933 23.2912 5.8572C23.2912 2.3211 25.9862 0.000900269 29.3327 0.000900269C31.0172 0.000900269 32.41 0.5643 33.3308 1.7352V0.1809H36.6549ZM33.1962 5.8572C33.1962 4.0779 31.8706 2.8836 30.0291 2.8836C28.1876 2.8836 26.8396 4.077 26.8396 5.8572C26.8396 7.6365 28.1876 8.8308 30.0291 8.8308C31.8706 8.8308 33.1962 7.6365 33.1962 5.8572Z" fill="white"/>
<path id="Vector_4" d="M68.5031 6.2397C68.5031 10.0467 65.8754 12.4794 62.484 12.4794C60.979 12.4794 59.7441 12.006 58.8458 11.0151V16.6689H55.3422V0.1809H58.6887V1.5777C59.5646 0.5193 60.8677 0.000900269 62.4849 0.000900269C65.8754 0.000900269 68.5031 2.4336 68.5031 6.2397ZM64.9546 6.2397C64.9546 4.1445 63.6291 2.8836 61.8773 2.8836C60.1255 2.8836 58.8 4.1454 58.8 6.2397C58.8 8.334 60.1255 9.5958 61.8773 9.5958C63.6291 9.5958 64.9546 8.3349 64.9546 6.2397Z" fill="#0FD677"/>
<path id="Vector_5" d="M50.3129 3.9501C51.2889 3.9501 52.08 3.1567 52.08 2.178C52.08 1.1993 51.2889 0.405899 50.3129 0.405899C49.337 0.405899 48.5459 1.1993 48.5459 2.178C48.5459 3.1567 49.337 3.9501 50.3129 3.9501Z" fill="#0FD677"/>
<path id="Vector_6" d="M41.6114 3.9501C42.5873 3.9501 43.3785 3.1567 43.3785 2.178C43.3785 1.1993 42.5873 0.405899 41.6114 0.405899C40.6355 0.405899 39.8444 1.1993 39.8444 2.178C39.8444 3.1567 40.6355 3.9501 41.6114 3.9501Z" fill="#0FD677"/>
<path id="Vector_7" d="M48.5809 5.9868V6.1722C48.5809 8.4024 47.4133 9.4383 45.7962 9.4383C44.2463 9.4383 43.3479 8.5374 43.3479 6.5097V5.9859H39.8444V7.0281C39.8444 10.7676 41.9785 12.4794 45.01 12.4794C46.4926 12.4794 47.8396 11.916 48.7613 10.8576V12.2994H52.0854V5.9868H48.5809Z" fill="#0FD677"/>
</g>
</svg>
